<?xml version="1.0"?>
<!-- Created by MetaPost 2.02 on 2024.03.26:2325 -->
<svg version="1.1" xmlns="http://www.w3.org/2000/svg" xmlns:xlink="http://www.w3.org/1999/xlink" width="115.528870" height="115.528870" viewBox="0 0 115.528870 115.528870">
<!-- Original BoundingBox: -58.585968 -58.585968 56.942902 56.942902 -->
  <path d="M86.932419 56.942902C86.932419 55.077301,86.748367 53.216248,86.382629 51.386841C86.020340 49.574738,85.481644 47.802444,84.774384 46.095184C84.067123 44.387955,83.194733 42.753922,82.169464 41.216492C81.134445 39.664444,79.948639 38.218445,78.629532 36.899338C77.310410 35.580231,75.864410 34.394424,74.312363 33.359406C72.774918 32.334137,71.140900 31.461716,69.433655 30.754456C67.726410 30.047195,65.954102 29.508514,64.142014 29.146240C62.312622 28.780502,60.451569 28.596451,58.585968 28.596451C56.720367 28.596451,54.859314 28.780502,53.029907 29.146240C51.217804 29.508530,49.445511 30.047226,47.738251 30.754486C46.031021 31.461746,44.396988 32.334137,42.859558 33.359406C41.307510 34.394424,39.861511 35.580231,38.542404 36.899338C37.223297 38.218460,36.037491 39.664459,35.002472 41.216507C33.977203 42.753952,33.104782 44.387970,32.397522 46.095215C31.690262 47.802460,31.151581 49.574768,30.789307 51.386856C30.423569 53.216248,30.239517 55.077301,30.239517 56.942902C30.239517 58.808502,30.423569 60.669556,30.789307 62.498962C31.151596 64.311066,31.690292 66.083359,32.397552 67.790619C33.104813 69.497849,33.977203 71.131882,35.002472 72.669312C36.037491 74.221359,37.223297 75.667358,38.542404 76.986465C39.861526 78.305573,41.307526 79.491379,42.859573 80.526398C44.397018 81.551666,46.031036 82.424088,47.738281 83.131348C49.445526 83.838608,51.217834 84.377289,53.029922 84.739563C54.859314 85.105301,56.720367 85.289352,58.585968 85.289352C60.451569 85.289352,62.312622 85.105301,64.142029 84.739563C65.954132 84.377274,67.726425 83.838577,69.433685 83.131317C71.140915 82.424057,72.774948 81.551666,74.312378 80.526398C75.864426 79.491379,77.310425 78.305573,78.629532 76.986465C79.948639 75.667343,81.134445 74.221344,82.169464 72.669296C83.194733 71.131851,84.067154 69.497833,84.774414 67.790588C85.481674 66.083344,86.020355 64.311035,86.382629 62.498947C86.748367 60.669556,86.932419 58.808502,86.932419 56.942902" style="stroke:rgb(0.000000%,0.000000%,0.000000%); stroke-width: 0.500000;stroke-linecap: round;stroke-linejoin: round;stroke-miterlimit: 10.000000;fill: none;"></path>
  <path d="M78.427963 62.612534C79.044205 61.022430,79.199371 59.308563,79.350571 57.612122C79.491821 56.027161,79.488419 54.432098,79.320572 52.849655C79.162384 51.358078,78.858704 49.884949,78.393555 48.458862C77.950851 47.101639,77.364075 45.794998,76.625061 44.573456C75.927307 43.420120,75.104797 42.346191,74.157028 41.387543C73.266144 40.486465,72.270828 39.694122,71.183640 39.043091C70.136734 38.416183,69.013351 37.926056,67.838608 37.595718C66.672485 37.267807,65.466949 37.100906,64.255600 37.100906C62.619736 36.643997,60.947021 36.329102,59.255188 36.178299C57.670227 36.037048,56.075165 36.040451,54.492722 36.208298C53.001144 36.366486,51.528015 36.670166,50.101929 37.135315C48.744705 37.578018,47.438065 38.164795,46.216522 38.903809C45.063187 39.601562,43.989258 40.424072,43.030609 41.371841C42.129532 42.262726,41.337189 43.258041,40.686157 44.345230C40.059250 45.392136,39.569122 46.515518,39.238785 47.690262C38.910873 48.856384,38.743973 50.061920,38.743973 51.273270C38.287064 52.909134,37.972168 54.581848,37.821365 56.273682C37.680115 57.858643,37.683517 59.453705,37.851364 61.036148C38.009552 62.527725,38.313232 64.000854,38.778381 65.426941C39.221085 66.784164,39.807861 68.090805,40.546875 69.312347C41.244629 70.465683,42.067139 71.539612,43.014908 72.498260C43.905792 73.399338,44.901108 74.191681,45.988297 74.842712C47.035202 75.469620,48.158585 75.959747,49.333328 76.290085C50.499451 76.617996,51.704987 76.784897,52.916336 76.784897C54.552200 77.241806,56.224915 77.556702,57.916748 77.707504C59.501709 77.848755,61.096771 77.845352,62.679214 77.677505C64.170792 77.519318,65.643921 77.215637,67.070007 76.750488C68.427231 76.307785,69.733871 75.721008,70.955414 74.981995C72.108749 74.284241,73.182678 73.461731,74.141327 72.513962C75.042404 71.623077,75.834747 70.627762,76.485779 69.540573C77.112686 68.493668,77.602814 67.370285,77.933151 66.195541C78.262024 65.026016,77.987640 63.748703,78.427963 62.612534" style="stroke:rgb(0.000000%,0.000000%,0.000000%); stroke-width: 0.500000;stroke-linecap: round;stroke-linejoin: round;stroke-miterlimit: 10.000000;fill: none;"></path>
  <path d="M69.924805 68.281311C71.438461 67.386139,71.606995 65.418625,72.319580 63.836441C72.937439 62.464554,73.463058 61.052383,73.867584 59.603104C74.224457 58.324722,74.486633 57.020966,74.618240 55.700134C74.732651 54.551453,74.748581 53.393829,74.620880 52.246399C74.513687 51.283051,74.322144 50.329453,74.001740 49.414444C73.742325 48.673615,73.400467 47.961639,72.933350 47.330475C72.552490 46.815857,72.090698 46.361801,71.534622 46.043900C71.043365 45.763046,70.490326 45.604065,69.924377 45.604065C68.497711 44.707565,67.015884 43.901245,65.479507 43.209290C64.107620 42.591431,62.695450 42.065811,61.246170 41.661285C59.967789 41.304413,58.664032 41.042236,57.343201 40.910629C56.194519 40.796219,55.036896 40.780289,53.889465 40.907990C52.926117 41.015182,51.972519 41.206726,51.057510 41.527130C50.316681 41.786545,49.604706 42.128403,48.973541 42.595520C48.458923 42.976379,48.004868 43.438171,47.686966 43.994247C47.406113 44.485504,47.247131 45.038544,47.247131 45.604492C46.350632 47.031158,45.544312 48.512985,44.852356 50.049362C44.234497 51.421249,43.708878 52.833420,43.304352 54.282700C42.947479 55.561081,42.685303 56.864838,42.553696 58.185669C42.439285 59.334351,42.423355 60.491974,42.551056 61.639404C42.658249 62.602753,42.849792 63.556351,43.170197 64.471359C43.429611 65.212189,43.771469 65.924164,44.238586 66.555328C44.619446 67.069946,45.081238 67.524002,45.637314 67.841904C46.128571 68.122757,46.681610 68.281738,47.247559 68.281738C48.674225 69.178238,50.156052 69.984558,51.692429 70.676514C53.064316 71.294373,54.476486 71.819992,55.925766 72.224518C57.204147 72.581390,58.507904 72.843567,59.828735 72.975174C60.977417 73.089584,62.135040 73.105515,63.282471 72.977814C64.245819 72.870621,65.199417 72.679077,66.114426 72.358673C66.855255 72.099258,67.567230 71.757401,68.198395 71.290283C68.713013 70.909424,69.167068 70.447632,69.484970 69.891556C69.768997 69.394730,69.377075 68.605225,69.924805 68.281311" style="stroke:rgb(0.000000%,0.000000%,0.000000%); stroke-width: 0.500000;stroke-linecap: round;stroke-linejoin: round;stroke-miterlimit: 10.000000;fill: none;"></path>
  <path d="M61.420349 73.950943C63.465775 74.097626,63.966782 71.505295,65.287521 70.061722C66.378586 68.869171,67.424057 67.635529,68.413757 66.357574C69.269455 65.252731,70.083023 64.115723,70.842331 62.942505C71.477280 61.961349,72.074310 60.955902,72.616409 59.920517C73.044174 59.103485,73.453506 58.276932,73.846405 57.442566C74.131317 56.837494,74.406067 56.227722,74.683334 55.619110C74.856445 55.239120,75.023178 54.855530,75.231216 54.493362C75.328018 54.324829,75.402939 54.108521,75.594009 54.108521C74.349701 52.768082,73.054199 51.475952,71.704788 50.241348C70.512238 49.150284,69.278595 48.104813,68.000641 47.115112C66.895798 46.259415,65.758789 45.445847,64.585571 44.686539C63.604416 44.051590,62.598969 43.454559,61.563583 42.912460C60.746552 42.484695,59.919998 42.075363,59.085632 41.682465C58.480560 41.397552,57.870789 41.122803,57.262177 40.845535C56.882187 40.672424,56.498596 40.505692,56.136429 40.297653C55.967896 40.200851,55.751587 40.125931,55.751587 39.934860C54.411148 41.179169,53.119019 42.474670,51.884415 43.824081C50.793350 45.016632,49.747879 46.250275,48.758179 47.528229C47.902481 48.633072,47.088913 49.770081,46.329605 50.943298C45.694656 51.924454,45.097626 52.929901,44.555527 53.965286C44.127762 54.782318,43.718430 55.608871,43.325531 56.443237C43.040619 57.048309,42.765869 57.658081,42.488602 58.266693C42.315491 58.646683,42.148758 59.030273,41.940720 59.392441C41.843918 59.560974,41.768997 59.777283,41.577927 59.777283C42.822235 61.117722,44.117737 62.409851,45.467148 63.644455C46.659698 64.735519,47.893341 65.780991,49.171295 66.770691C50.276138 67.626389,51.413147 68.439957,52.586365 69.199265C53.567520 69.834213,54.572968 70.431244,55.608353 70.973343C56.425385 71.401108,57.251938 71.810440,58.086304 72.203339C58.691376 72.488251,59.301147 72.763000,59.909760 73.040268C60.289749 73.213379,60.673340 73.380112,61.035507 73.588150C61.192703 73.678452,61.225616 73.936981,61.420349 73.950943" style="stroke:rgb(0.000000%,0.000000%,0.000000%); stroke-width: 0.500000;stroke-linecap: round;stroke-linejoin: round;stroke-miterlimit: 10.000000;fill: none;"></path>
  <path d="M52.917191 79.619720C55.162857 80.525223,56.362656 77.520477,58.256531 76.286041C59.841492 75.252945,61.408646 74.192825,62.960770 73.111023C64.339874 72.149887,65.706818 71.171463,67.067017 70.183777C68.251266 69.323792,69.430115 68.456375,70.612228 67.593460C71.619507 66.858170,72.640091 66.140839,73.691101 65.469467C74.578384 64.902664,75.486725 64.368225,76.433060 63.906494C77.235931 63.514755,78.065109 63.176331,78.927231 62.941544C79.689148 62.734055,80.472977 62.611679,81.262787 62.611679C80.187439 60.809753,79.074936 59.030273,77.929108 57.272339C76.896011 55.687378,75.835892 54.120224,74.754089 52.568100C73.792953 51.188995,72.814529 49.822052,71.826843 48.461853C70.966858 47.277603,70.099442 46.098755,69.236526 44.916641C68.501236 43.909363,67.783905 42.888779,67.112534 41.837769C66.545731 40.950485,66.011292 40.042145,65.549561 39.095810C65.157822 38.292938,64.819397 37.463760,64.584610 36.601639C64.377121 35.839722,64.254745 35.055893,64.254745 34.266083C62.452820 35.341431,60.673340 36.453934,58.915405 37.599762C57.330444 38.632858,55.763290 39.692978,54.211166 40.774780C52.832062 41.735916,51.465118 42.714340,50.104919 43.702026C48.920670 44.562012,47.741821 45.429428,46.559708 46.292343C45.552429 47.027634,44.531845 47.744965,43.480835 48.416336C42.593552 48.983139,41.685211 49.517578,40.738876 49.979309C39.936005 50.371048,39.106827 50.709473,38.244705 50.944260C37.482788 51.151749,36.698959 51.274124,35.909149 51.274124C36.984497 53.076050,38.097000 54.855530,39.242828 56.613464C40.275925 58.198425,41.336044 59.765579,42.417847 61.317703C43.378983 62.696808,44.357407 64.063751,45.345093 65.423950C46.205078 66.608200,47.072495 67.787048,47.935410 68.969162C48.670700 69.976440,49.388031 70.997025,50.059402 72.048035C50.626205 72.935318,51.160645 73.843658,51.622375 74.789993C52.014114 75.592865,52.352539 76.422043,52.587326 77.284164C52.803848 78.079269,52.006073 79.252335,52.917191 79.619720" style="stroke:rgb(0.000000%,0.000000%,0.000000%); stroke-width: 0.500000;stroke-linecap: round;stroke-linejoin: round;stroke-miterlimit: 10.000000;fill: none;"></path>
  <path d="M44.412735 85.289352C46.834335 86.747543,48.796509 83.522400,51.224457 82.511322C53.322144 81.637756,55.414810 80.752243,57.506958 79.865494C59.433563 79.048950,61.359650 78.231171,63.291107 77.426147C65.056641 76.690231,66.826569 75.964737,68.607758 75.267578C70.233475 74.631287,71.874344 74.033859,73.535767 73.497604C75.067413 73.003220,76.615738 72.561188,78.183044 72.195129C79.648941 71.852753,81.130020 71.577530,82.623825 71.391022C84.053223 71.212555,85.491898 71.116135,86.932419 71.116135C86.025940 68.837646,85.097076 66.568161,84.154388 64.304413C83.280823 62.206726,82.395309 60.114059,81.508560 58.021912C80.692017 56.095306,79.874237 54.169220,79.069214 52.237762C78.333298 50.472229,77.607803 48.702301,76.910645 46.921112C76.274353 45.295395,75.676926 43.654526,75.140671 41.993103C74.646286 40.461456,74.204254 38.913132,73.838196 37.345825C73.495819 35.879929,73.220596 34.398849,73.034088 32.905045C72.855621 31.475647,72.759201 30.036972,72.759201 28.596451C70.480713 29.502930,68.211227 30.431793,65.947479 31.374481C63.849792 32.248047,61.757126 33.133560,59.664978 34.020309C57.738373 34.836853,55.812286 35.654633,53.880829 36.459656C52.115295 37.195572,50.345367 37.921066,48.564178 38.618225C46.938461 39.254517,45.297592 39.851944,43.636169 40.388199C42.104523 40.882584,40.556198 41.324615,38.988892 41.690674C37.522995 42.033051,36.041916 42.308273,34.548111 42.494781C33.118713 42.673248,31.680038 42.769669,30.239517 42.769669C31.145996 45.048157,32.074860 47.317642,33.017548 49.581390C33.891113 51.679077,34.776627 53.771744,35.663376 55.863892C36.479919 57.790497,37.297699 59.716583,38.102722 61.648041C38.838638 63.413574,39.564133 65.183502,40.261292 66.964691C40.897583 68.590408,41.495010 70.231277,42.031265 71.892700C42.525650 73.424347,42.967682 74.972672,43.333740 76.539978C43.676117 78.005875,43.951340 79.486954,44.137848 80.980759C44.326797 82.494110,42.950211 84.408676,44.412735 85.289352" style="stroke:rgb(0.000000%,0.000000%,0.000000%); stroke-width: 0.500000;stroke-linecap: round;stroke-linejoin: round;stroke-miterlimit: 10.000000;fill: none;"></path>
  <path d="M35.908295 90.958984C38.539688 92.892471,41.248306 89.531860,44.192398 88.736603C46.812088 88.028961,49.431366 87.319809,52.053146 86.619965C54.537201 85.956924,57.023468 85.302155,59.515198 84.668518C61.872055 84.069153,64.233704 83.488602,66.603287 82.941681C68.852264 82.422607,71.110962 81.946243,73.380447 81.525742C75.555435 81.122757,77.739746 80.771240,79.933014 80.483765C82.055267 80.205597,84.185059 79.987610,86.320419 79.840500C88.411240 79.696457,90.506271 79.620575,92.602051 79.620575C91.869125 76.857101,91.125229 74.096558,90.379669 71.336472C89.672028 68.716782,88.962875 66.097504,88.263031 63.475723C87.599991 60.991669,86.945221 58.505402,86.311584 56.013672C85.712219 53.656815,85.131668 51.295166,84.584747 48.925583C84.065674 46.676605,83.589310 44.417908,83.168808 42.148422C82.765823 39.973434,82.414307 37.789124,82.126831 35.595856C81.848663 33.473602,81.630676 31.343811,81.483566 29.208450C81.339523 27.117630,81.263641 25.022598,81.263641 22.926819C78.500168 23.659744,75.739624 24.403641,72.979538 25.149200C70.359848 25.856842,67.740570 26.565994,65.118790 27.265839C62.634735 27.928879,60.148468 28.583649,57.656738 29.217285C55.299881 29.816650,52.938232 30.397202,50.568649 30.944122C48.319672 31.463196,46.060974 31.939560,43.791489 32.360062C41.616501 32.763046,39.432190 33.114563,37.238922 33.402039C35.116669 33.680206,32.986877 33.898193,30.851517 34.045303C28.760696 34.189346,26.665665 34.265228,24.569885 34.265228C25.302811 37.028702,26.046707 39.789246,26.792267 42.549332C27.499908 45.169022,28.209061 47.788300,28.908905 50.410080C29.571945 52.894135,30.226715 55.380402,30.860352 57.872131C31.459717 60.228989,32.040268 62.590637,32.587189 64.960220C33.106262 67.209198,33.582626 69.467896,34.003128 71.737381C34.406113 73.912369,34.757629 76.096680,35.045105 78.289948C35.323273 80.412201,35.541260 82.541992,35.688370 84.677353C35.840958 86.892166,33.961563 89.528564,35.908295 90.958984" style="stroke:rgb(0.000000%,0.000000%,0.000000%); stroke-width: 0.500000;stroke-linecap: round;stroke-linejoin: round;stroke-miterlimit: 10.000000;fill: none;"></path>
  <path d="M27.405136 96.627762C30.276779 99.009766,33.708160 95.549240,37.161407 94.960922C40.306534 94.425079,43.452316 93.893082,46.600159 93.373413C49.644363 92.870865,52.690491 92.379852,55.739883 91.909790C58.689560 91.455078,61.642242 91.019958,64.599106 90.614624C67.469467 90.221161,70.344803 89.864761,73.225143 89.552643C76.040054 89.247604,78.859421 88.984894,81.682739 88.771149C84.457565 88.561081,87.235825 88.398346,90.016434 88.288681C92.766571 88.180222,95.518539 88.123734,98.270828 88.123734C97.716293 84.871460,97.158081 81.619812,96.603989 78.367462C96.068146 75.222336,95.536148 72.076553,95.016479 68.928711C94.513931 65.884506,94.022919 62.838379,93.552856 59.788986C93.098145 56.839310,92.663025 53.886627,92.257690 50.929764C91.864227 48.059402,91.507828 45.184067,91.195709 42.303726C90.890671 39.488815,90.627960 36.669449,90.414215 33.846130C90.204147 31.071304,90.041412 28.293045,89.931747 25.512436C89.823288 22.762299,89.766800 20.010330,89.766800 17.258041C86.514526 17.812576,83.262878 18.370789,80.010529 18.924881C76.865402 19.460724,73.719620 19.992722,70.571777 20.512390C67.527573 21.014938,64.481445 21.505951,61.432053 21.976013C58.482376 22.430725,55.529694 22.865845,52.572830 23.271179C49.702469 23.664642,46.827133 24.021042,43.946793 24.333160C41.131882 24.638199,38.312515 24.900909,35.489197 25.114655C32.714371 25.324722,29.936111 25.487457,27.155502 25.597122C24.405365 25.705582,21.653397 25.762070,18.901108 25.762070C19.455643 29.014343,20.013855 32.265991,20.567947 35.518341C21.103790 38.663467,21.635788 41.809250,22.155457 44.957092C22.658005 48.001297,23.149017 51.047424,23.619080 54.096817C24.073792 57.046494,24.508911 59.999176,24.914246 62.956039C25.307709 65.826401,25.664108 68.701736,25.976227 71.582077C26.281265 74.396988,26.543976 77.216354,26.757721 80.039673C26.967789 82.814499,27.130524 85.592758,27.240189 88.373367C27.354889 91.281723,25.003677 94.635773,27.405136 96.627762" style="stroke:rgb(0.000000%,0.000000%,0.000000%); stroke-width: 0.500000;stroke-linecap: round;stroke-linejoin: round;stroke-miterlimit: 10.000000;fill: none;"></path>
  <path d="M18.900681 102.297394C22.034134 105.119202,26.169357 101.574234,30.129349 101.186203C33.800995 100.826416,37.473160 100.471802,41.146332 100.127884C44.751099 99.790390,48.356827 99.463181,51.963974 99.152161C55.506073 98.846741,59.049515 98.556915,62.594635 98.288742C66.084412 98.024765,69.576172 97.787582,73.069809 97.580765C76.522507 97.376358,79.976898 97.201599,83.432724 97.059784C86.858368 96.919205,90.285278 96.811005,93.713028 96.738144C97.121689 96.665695,100.531021 96.628189,103.940460 96.628189C103.568207 92.885483,103.196060 89.142761,102.829269 85.399521C102.469482 81.727875,102.114868 78.055710,101.770950 74.382538C101.433456 70.777771,101.106247 67.172043,100.795227 63.564896C100.489807 60.022797,100.199982 56.479355,99.931808 52.934235C99.667831 49.444458,99.430649 45.952698,99.223831 42.459061C99.019424 39.006363,98.844666 35.551971,98.702850 32.096146C98.562271 28.670502,98.454071 25.243591,98.381210 21.815842C98.308762 18.407181,98.271255 14.997849,98.271255 11.588409C94.528549 11.960663,90.785828 12.332809,87.042587 12.699600C83.370941 13.059387,79.698776 13.414001,76.025604 13.757919C72.420837 14.095413,68.815109 14.422623,65.207962 14.733643C61.665863 15.039062,58.122421 15.328888,54.577301 15.597061C51.087524 15.861038,47.595764 16.098221,44.102127 16.305038C40.649429 16.509445,37.195038 16.684204,33.739212 16.826019C30.313568 16.966599,26.886658 17.074799,23.458908 17.147659C20.050247 17.220108,16.640915 17.257614,13.231476 17.257614C13.603729 21.000320,13.975876 24.743042,14.342667 28.486282C14.702454 32.157928,15.057068 35.830093,15.400986 39.503265C15.738480 43.108032,16.065689 46.713760,16.376709 50.320908C16.682129 53.863007,16.971954 57.406448,17.240128 60.951569C17.504105 64.441345,17.741287 67.933105,17.948105 71.426743C18.152512 74.879440,18.327271 78.333832,18.469086 81.789658C18.609665 85.215302,18.717865 88.642212,18.790726 92.069962C18.867203 95.668091,16.059692 99.738953,18.900681 102.297394" style="stroke:rgb(0.000000%,0.000000%,0.000000%); stroke-width: 0.500000;stroke-linecap: round;stroke-linejoin: round;stroke-miterlimit: 10.000000;fill: none;"></path>
  <path d="M10.397522 107.966171C13.807541 111.225433,18.632416 107.602936,23.098358 107.410522C27.296494 107.229645,31.494797 107.052368,35.693344 106.881332C39.858170 106.711685,44.023239 106.548126,48.188660 106.393433C52.322250 106.239914,56.456161 106.095078,60.590454 105.961685C64.698044 105.829147,68.806076 105.710693,72.914520 105.607666C77.003479 105.505112,81.092804 105.417877,85.182434 105.347168C89.257721 105.276703,93.333298 105.222687,97.409042 105.186325C101.475677 105.150040,105.542450 105.131348,109.609238 105.131348C109.422073 100.897827,109.235992 96.664246,109.053589 92.430511C108.872711 88.232376,108.695435 84.034073,108.524399 79.835526C108.354752 75.670700,108.191193 71.505630,108.036499 67.340210C107.882980 63.206619,107.738144 59.072708,107.604752 54.938416C107.472214 50.830826,107.353760 46.722794,107.250732 42.614349C107.148178 38.525391,107.060944 34.436066,106.990234 30.346436C106.919769 26.271149,106.865753 22.195572,106.829391 18.119827C106.793106 14.053192,106.774414 9.986420,106.774414 5.919632C102.540894 6.106796,98.307312 6.292877,94.073578 6.475281C89.875443 6.656158,85.677139 6.833435,81.478592 7.004471C77.313766 7.174118,73.148697 7.337677,68.983276 7.492371C64.849686 7.645889,60.715775 7.790726,56.581482 7.924118C52.473892 8.056656,48.365860 8.175110,44.257416 8.278137C40.168457 8.380692,36.079132 8.467926,31.989502 8.538635C27.914215 8.609100,23.838638 8.663116,19.762894 8.699478C15.696259 8.735764,11.629486 8.754456,7.562698 8.754456C7.749863 12.987976,7.935944 17.221558,8.118347 21.455292C8.299225 25.653427,8.476501 29.851730,8.647537 34.050278C8.817184 38.215103,8.980743 42.380173,9.135437 46.545593C9.288956 50.679184,9.433792 54.813095,9.567184 58.947388C9.699722 63.054977,9.818176 67.163010,9.921204 71.271454C10.023758 75.360413,10.110992 79.449738,10.181702 83.539368C10.252167 87.614655,10.306183 91.690231,10.342545 95.765976C10.380783 100.051620,7.125839 104.839127,10.397522 107.966171" style="stroke:rgb(0.000000%,0.000000%,0.000000%); stroke-width: 0.500000;stroke-linecap: round;stroke-linejoin: round;stroke-miterlimit: 10.000000;fill: none;"></path>
  <path d="M1.893066 113.635803C5.589951 117.332687,11.094345 113.635803,16.066299 113.635803L30.239532 113.635803L44.412750 113.635803L58.585983 113.635803L72.759186 113.635803L86.932419 113.635803L101.105637 113.635803L115.278870 113.635803L115.278870 99.462570L115.278870 85.289337L115.278870 71.116119L115.278870 56.942886L115.278870 42.769684L115.278870 28.596451L115.278870 14.423233L115.278870 0.250000L101.105637 0.250000L86.932404 0.250000L72.759186 0.250000L58.585953 0.250000L44.412750 0.250000L30.239517 0.250000L16.066299 0.250000L1.893066 0.250000L1.893066 14.423233L1.893066 28.596466L1.893066 42.769684L1.893066 56.942917L1.893066 71.116119L1.893066 85.289352L1.893066 99.462570C1.893066 104.434525,-1.803818 109.938919,1.893066 113.635803" style="stroke:rgb(0.000000%,0.000000%,0.000000%); stroke-width: 0.500000;stroke-linecap: round;stroke-linejoin: round;stroke-miterlimit: 10.000000;fill: none;"></path>
</svg>
