<?xml version="1.0"?>
<!-- Created by MetaPost 2.02 on 2024.02.05:1232 -->
<svg version="1.1" xmlns="http://www.w3.org/2000/svg" xmlns:xlink="http://www.w3.org/1999/xlink" width="567.429016" height="397.350311" viewBox="0 0 567.429016 397.350311">
<!-- Original BoundingBox: -56.942902 -170.328705 510.486115 227.021606 -->
  <path d="M0.250000 0.250000L0.250000 397.100311" style="stroke:rgb(69.999695%,69.999695%,69.999695%); stroke-width: 0.500000;stroke-linecap: round;stroke-linejoin: round;stroke-miterlimit: 10.000000;fill: none;"></path>
  <path d="M56.942902 0.250000L56.942902 397.100311" style="stroke:rgb(69.999695%,69.999695%,69.999695%); stroke-width: 0.500000;stroke-linecap: round;stroke-linejoin: round;stroke-miterlimit: 10.000000;fill: none;"></path>
  <path d="M113.635803 0.250000L113.635803 397.100311" style="stroke:rgb(69.999695%,69.999695%,69.999695%); stroke-width: 0.500000;stroke-linecap: round;stroke-linejoin: round;stroke-miterlimit: 10.000000;fill: none;"></path>
  <path d="M170.328705 0.250000L170.328705 397.100311" style="stroke:rgb(69.999695%,69.999695%,69.999695%); stroke-width: 0.500000;stroke-linecap: round;stroke-linejoin: round;stroke-miterlimit: 10.000000;fill: none;"></path>
  <path d="M227.021606 0.250000L227.021606 397.100311" style="stroke:rgb(69.999695%,69.999695%,69.999695%); stroke-width: 0.500000;stroke-linecap: round;stroke-linejoin: round;stroke-miterlimit: 10.000000;fill: none;"></path>
  <path d="M283.714508 0.250000L283.714508 397.100311" style="stroke:rgb(69.999695%,69.999695%,69.999695%); stroke-width: 0.500000;stroke-linecap: round;stroke-linejoin: round;stroke-miterlimit: 10.000000;fill: none;"></path>
  <path d="M340.407410 0.250000L340.407410 397.100311" style="stroke:rgb(69.999695%,69.999695%,69.999695%); stroke-width: 0.500000;stroke-linecap: round;stroke-linejoin: round;stroke-miterlimit: 10.000000;fill: none;"></path>
  <path d="M397.100311 0.250000L397.100311 397.100311" style="stroke:rgb(69.999695%,69.999695%,69.999695%); stroke-width: 0.500000;stroke-linecap: round;stroke-linejoin: round;stroke-miterlimit: 10.000000;fill: none;"></path>
  <path d="M453.793213 0.250000L453.793213 397.100311" style="stroke:rgb(69.999695%,69.999695%,69.999695%); stroke-width: 0.500000;stroke-linecap: round;stroke-linejoin: round;stroke-miterlimit: 10.000000;fill: none;"></path>
  <path d="M510.486115 0.250000L510.486115 397.100311" style="stroke:rgb(69.999695%,69.999695%,69.999695%); stroke-width: 0.500000;stroke-linecap: round;stroke-linejoin: round;stroke-miterlimit: 10.000000;fill: none;"></path>
  <path d="M567.179016 0.250000L567.179016 397.100311" style="stroke:rgb(69.999695%,69.999695%,69.999695%); stroke-width: 0.500000;stroke-linecap: round;stroke-linejoin: round;stroke-miterlimit: 10.000000;fill: none;"></path>
  <path d="M0.250000 397.100311L567.179016 397.100311" style="stroke:rgb(69.999695%,69.999695%,69.999695%); stroke-width: 0.500000;stroke-linecap: round;stroke-linejoin: round;stroke-miterlimit: 10.000000;fill: none;"></path>
  <path d="M0.250000 340.407410L567.179016 340.407410" style="stroke:rgb(69.999695%,69.999695%,69.999695%); stroke-width: 0.500000;stroke-linecap: round;stroke-linejoin: round;stroke-miterlimit: 10.000000;fill: none;"></path>
  <path d="M0.250000 283.714508L567.179016 283.714508" style="stroke:rgb(69.999695%,69.999695%,69.999695%); stroke-width: 0.500000;stroke-linecap: round;stroke-linejoin: round;stroke-miterlimit: 10.000000;fill: none;"></path>
  <path d="M0.250000 227.021606L567.179016 227.021606" style="stroke:rgb(69.999695%,69.999695%,69.999695%); stroke-width: 0.500000;stroke-linecap: round;stroke-linejoin: round;stroke-miterlimit: 10.000000;fill: none;"></path>
  <path d="M0.250000 170.328705L567.179016 170.328705" style="stroke:rgb(69.999695%,69.999695%,69.999695%); stroke-width: 0.500000;stroke-linecap: round;stroke-linejoin: round;stroke-miterlimit: 10.000000;fill: none;"></path>
  <path d="M0.250000 113.635803L567.179016 113.635803" style="stroke:rgb(69.999695%,69.999695%,69.999695%); stroke-width: 0.500000;stroke-linecap: round;stroke-linejoin: round;stroke-miterlimit: 10.000000;fill: none;"></path>
  <path d="M0.250000 56.942902L567.179016 56.942902" style="stroke:rgb(69.999695%,69.999695%,69.999695%); stroke-width: 0.500000;stroke-linecap: round;stroke-linejoin: round;stroke-miterlimit: 10.000000;fill: none;"></path>
  <path d="M0.250000 0.250000L567.179016 0.250000" style="stroke:rgb(69.999695%,69.999695%,69.999695%); stroke-width: 0.500000;stroke-linecap: round;stroke-linejoin: round;stroke-miterlimit: 10.000000;fill: none;"></path>
  <path d="M56.942902 227.021606l0 0" style="stroke:rgb(0.000000%,0.000000%,0.000000%); stroke-width: 3.000000;stroke-linecap: round;stroke-linejoin: round;stroke-miterlimit: 10.000000;fill: none;"></path>
  <path d="M85.289352 227.021606C85.289352 219.503326,82.302277 212.293869,76.986465 206.978043C71.670639 201.662231,64.461182 198.675156,56.942902 198.675156C49.424622 198.675156,42.215164 201.662231,36.899338 206.978043C31.583527 212.293869,28.596451 219.503326,28.596451 227.021606C28.596451 234.539886,31.583527 241.749344,36.899338 247.065170C42.215164 252.380981,49.424622 255.368057,56.942902 255.368057C64.461182 255.368057,71.670639 252.380981,76.986465 247.065170C82.302277 241.749344,85.289352 234.539886,85.289352 227.021606Z" style="stroke:rgb(0.000000%,0.000000%,0.000000%); stroke-width: 0.500000;stroke-linecap: round;stroke-linejoin: round;stroke-miterlimit: 10.000000;fill: none;"></path>
  <path d="M198.675156 227.021606C198.675156 219.503326,195.688080 212.293869,190.372269 206.978043C185.056442 201.662231,177.846985 198.675156,170.328705 198.675156C162.810425 198.675156,155.600967 201.662231,150.285141 206.978043C144.969330 212.293869,141.982254 219.503326,141.982254 227.021606" style="stroke:rgb(0.000000%,0.000000%,0.000000%); stroke-width: 0.500000;stroke-linecap: round;stroke-linejoin: round;stroke-miterlimit: 10.000000;fill: none;"></path>
  <path d="M312.060959 227.021606C312.060959 219.503326,309.073883 212.293869,303.758072 206.978043C298.442245 201.662231,291.232788 198.675156,283.714508 198.675156" style="stroke:rgb(0.000000%,0.000000%,0.000000%); stroke-width: 0.500000;stroke-linecap: round;stroke-linejoin: round;stroke-miterlimit: 10.000000;fill: none;"></path>
  <path d="M453.793213 227.021606C453.793213 219.503326,447.819077 212.293869,437.187424 206.978043C426.555771 201.662231,412.136871 198.675156,397.100311 198.675156C382.063751 198.675156,367.644852 201.662231,357.013199 206.978043C346.381546 212.293869,340.407410 219.503326,340.407410 227.021606C340.407410 234.539886,346.381546 241.749344,357.013199 247.065170C367.644852 252.380981,382.063751 255.368057,397.100311 255.368057C412.136871 255.368057,426.555771 252.380981,437.187424 247.065170C447.819077 241.749344,453.793213 234.539886,453.793213 227.021606Z" style="stroke:rgb(0.000000%,0.000000%,0.000000%); stroke-width: 0.500000;stroke-linecap: round;stroke-linejoin: round;stroke-miterlimit: 10.000000;fill: none;"></path>
  <path d="M550.574097 267.109589C555.890335 261.793350,556.763824 252.471130,553.004974 241.194550C549.246094 229.917969,541.162567 217.610077,530.530106 206.977615C519.897644 196.345154,507.589752 188.261627,496.313171 184.502747C485.036591 180.743896,475.714371 181.617386,470.398132 186.933624C465.081894 192.249863,464.208405 201.572083,467.967255 212.848663C471.726135 224.125244,479.809662 236.433136,490.442123 247.065598C501.074585 257.698059,513.382477 265.781586,524.659058 269.540466C535.935638 273.299316,545.257858 272.425827,550.574097 267.109589Z" style="stroke:rgb(0.000000%,0.000000%,0.000000%); stroke-width: 0.500000;stroke-linecap: round;stroke-linejoin: round;stroke-miterlimit: 10.000000;fill: none;"></path>
  <path d="M85.289352 340.407410C85.289352 332.889130,82.302277 325.679672,76.986465 320.363846C71.670639 315.048035,64.461182 312.060959,56.942902 312.060959C49.424622 312.060959,42.215164 315.048035,36.899338 320.363846C31.583527 325.679672,28.596451 332.889130,28.596451 340.407410C28.596451 347.925690,31.583527 355.135147,36.899338 360.450974C42.215164 365.766785,49.424622 368.753860,56.942902 368.753860C64.461182 368.753860,71.670639 365.766785,76.986465 360.450974C82.302277 355.135147,85.289352 347.925690,85.289352 340.407410Z" style="fill: rgb(0.000000%,0.000000%,0.000000%);stroke: none;"></path>
  <path d="M198.675156 340.407410C198.675156 332.889130,195.688080 325.679672,190.372269 320.363846C185.056442 315.048035,177.846985 312.060959,170.328705 312.060959C162.810425 312.060959,155.600967 315.048035,150.285141 320.363846C144.969330 325.679672,141.982254 332.889130,141.982254 340.407410Z" style="fill: rgb(0.000000%,0.000000%,0.000000%);stroke: none;"></path>
  <path d="M312.060959 340.407410C312.060959 332.889130,309.073883 325.679672,303.758072 320.363846C298.442245 315.048035,291.232788 312.060959,283.714508 312.060959L283.714508 340.407410Z" style="fill: rgb(0.000000%,0.000000%,0.000000%);stroke: none;"></path>
  <path d="M417.144302 360.451401C422.460541 355.135162,425.446213 347.925125,425.446228 340.407410C425.446213 332.889694,422.460541 325.679657,417.144302 320.363419L397.100311 340.407410Z" style="fill: rgb(0.000000%,0.000000%,0.000000%);stroke: none;"></path>
  <path d="M397.690720 46.625717C392.374481 41.309479,385.164429 38.323792,377.646729 38.323792C370.129028 38.323792,362.918976 41.309479,357.602753 46.625702L377.646744 66.669693Z" style="fill: rgb(0.000000%,0.000000%,0.000000%);stroke: none;"></path>
  <path d="M510.486115 113.635803C525.522675 113.635803,539.941574 107.661667,550.573227 97.030014C561.204880 86.398361,567.179016 71.979462,567.179016 56.942902L510.486115 56.942902Z" style="fill: rgb(0.000000%,0.000000%,0.000000%);stroke: none;"></path>
  <path d="M56.942902 113.635803L113.635803 113.635803L113.635803 56.942902L56.942902 56.942902Z" style="fill: rgb(0.000000%,0.000000%,0.000000%);stroke: none;"></path>
  <path d="M170.328705 113.635803L227.021606 113.635803L227.021606 28.596451L170.328705 28.596451Z" style="fill: rgb(0.000000%,0.000000%,0.000000%);stroke: none;"></path>
</svg>
