<?xml version="1.0"?>
<!-- Created by MetaPost 2.02 on 2024.02.05:1231 -->
<svg version="1.1" xmlns="http://www.w3.org/2000/svg" xmlns:xlink="http://www.w3.org/1999/xlink" width="750.716736" height="156.542068" viewBox="0 0 750.716736 156.542068">
<!-- Original BoundingBox: -0.500000 -87.087646 750.216736 69.454422 -->
  <path d="M0.500000 69.454422L57.192902 69.454422L57.192902 12.761520L0.500000 12.761520Z" style="stroke:rgb(60.000610%,60.000610%,60.000610%); stroke-width: 1.000000;stroke-linecap: round;stroke-linejoin: round;stroke-miterlimit: 10.000000;fill: none;"></path>
  <path d="M0.500000 69.454422L57.192902 12.761520" style="stroke:rgb(0.000000%,0.000000%,0.000000%); stroke-width: 0.500000;stroke-linecap: round;stroke-linejoin: round;stroke-miterlimit: 10.000000;fill: none;"></path>
  <path d="M55.662033 16.457458L57.192902 12.761520L53.496964 14.292389Z" style="stroke:rgb(0.000000%,0.000000%,0.000000%); stroke-width: 0.500000;fill: rgb(0.000000%,0.000000%,0.000000%);"></path>
  <path d="M85.539352 69.454422L142.232254 69.454422L142.232254 12.761520L85.539352 12.761520Z" style="stroke:rgb(60.000610%,60.000610%,60.000610%); stroke-width: 1.000000;stroke-linecap: round;stroke-linejoin: round;stroke-miterlimit: 10.000000;fill: none;"></path>
  <path d="M85.539352 69.454422C85.539352 38.143799,110.921631 12.761520,142.232254 12.761520" style="stroke:rgb(0.000000%,0.000000%,0.000000%); stroke-width: 0.500000;stroke-linecap: round;stroke-linejoin: round;stroke-miterlimit: 10.000000;fill: none;"></path>
  <path d="M138.592148 14.419540C139.776962 13.829178,140.990616 13.275833,142.232254 12.761520C140.990616 12.247208,139.741165 11.780289,138.485947 11.359909Z" style="stroke:rgb(0.000000%,0.000000%,0.000000%); stroke-width: 0.500000;fill: rgb(0.000000%,0.000000%,0.000000%);"></path>
  <path d="M170.578705 69.454422L227.271606 69.454422L227.271606 12.761520L170.578705 12.761520Z" style="stroke:rgb(60.000610%,60.000610%,60.000610%); stroke-width: 1.000000;stroke-linecap: round;stroke-linejoin: round;stroke-miterlimit: 10.000000;fill: none;"></path>
  <path d="M170.578705 69.454422C194.124664 55.860199,213.677383 36.307480,227.271606 12.761520" style="stroke:rgb(0.000000%,0.000000%,0.000000%); stroke-width: 0.500000;stroke-linecap: round;stroke-linejoin: round;stroke-miterlimit: 10.000000;fill: none;"></path>
  <path d="M226.698318 16.720627C226.906265 15.404526,227.097412 14.084717,227.271606 12.761520C226.212769 13.573975,225.144363 14.372025,224.066666 15.155594Z" style="stroke:rgb(0.000000%,0.000000%,0.000000%); stroke-width: 0.500000;fill: rgb(0.000000%,0.000000%,0.000000%);"></path>
  <path d="M255.618057 69.454422L312.310959 69.454422L312.310959 12.761520L255.618057 12.761520Z" style="stroke:rgb(60.000610%,60.000610%,60.000610%); stroke-width: 1.000000;stroke-linecap: round;stroke-linejoin: round;stroke-miterlimit: 10.000000;fill: none;"></path>
  <path d="M255.618057 69.454422C255.618057 251.946121,494.802658 12.761520,312.310959 12.761520" style="stroke:rgb(0.000000%,0.000000%,0.000000%); stroke-width: 0.500000;stroke-linecap: round;stroke-linejoin: round;stroke-miterlimit: 10.000000;fill: none;"></path>
  <path d="M316.020309 11.267624C314.800217 11.744705,313.563812 12.242554,312.310959 12.761520C313.563812 13.280487,314.790115 13.802750,315.990189 14.328140Z" style="stroke:rgb(0.000000%,0.000000%,0.000000%); stroke-width: 0.500000;fill: rgb(0.000000%,0.000000%,0.000000%);"></path>
  <path d="M340.657410 69.454422L397.350311 69.454422L397.350311 12.761520L340.657410 12.761520Z" style="stroke:rgb(60.000610%,60.000610%,60.000610%); stroke-width: 1.000000;stroke-linecap: round;stroke-linejoin: round;stroke-miterlimit: 10.000000;fill: none;"></path>
  <path d="M340.657410 69.454422C340.657410 26.934738,383.177094 69.454422,397.350311 12.761520" style="stroke:rgb(0.000000%,0.000000%,0.000000%); stroke-width: 0.500000;stroke-linecap: round;stroke-linejoin: round;stroke-miterlimit: 10.000000;fill: none;"></path>
  <path d="M397.854767 16.728989C397.721298 15.450439,397.553757 14.128571,397.350311 12.761520C396.527481 13.872009,395.711258 14.925171,394.901550 15.923599Z" style="stroke:rgb(0.000000%,0.000000%,0.000000%); stroke-width: 0.500000;fill: rgb(0.000000%,0.000000%,0.000000%);"></path>
  <path d="M425.696762 69.454422L482.389664 69.454422L482.389664 12.761520L425.696762 12.761520Z" style="stroke:rgb(60.000610%,60.000610%,60.000610%); stroke-width: 1.000000;stroke-linecap: round;stroke-linejoin: round;stroke-miterlimit: 10.000000;fill: none;"></path>
  <path d="M425.696762 69.454422C470.259964 49.076675,373.674759 148.059219,425.696762 111.974106C460.322784 87.955734,489.735672 53.027847,482.389664 12.761520" style="stroke:rgb(0.000000%,0.000000%,0.000000%); stroke-width: 0.500000;stroke-linecap: round;stroke-linejoin: round;stroke-miterlimit: 10.000000;fill: none;"></path>
  <path d="M484.463470 16.183014C483.810501 15.033051,483.119553 13.892349,482.389664 12.761520C482.106125 14.077225,481.788071 15.372406,481.436646 16.647278Z" style="stroke:rgb(0.000000%,0.000000%,0.000000%); stroke-width: 0.500000;fill: rgb(0.000000%,0.000000%,0.000000%);"></path>
  <path d="M425.696762 111.974106l0 0" style="stroke:rgb(0.000000%,0.000000%,0.000000%); stroke-width: 5.000000;stroke-linecap: round;stroke-linejoin: round;stroke-miterlimit: 10.000000;fill: none;"></path>
  <path d="M510.736115 69.454422L567.429016 69.454422L567.429016 12.761520L510.736115 12.761520Z" style="stroke:rgb(60.000610%,60.000610%,60.000610%); stroke-width: 1.000000;stroke-linecap: round;stroke-linejoin: round;stroke-miterlimit: 10.000000;fill: none;"></path>
  <path d="M510.736115 69.454422C507.488052 88.886368,519.896118 107.498489,539.082565 111.974106C602.936737 126.869354,629.514008 33.848892,567.429016 12.761520" style="stroke:rgb(0.000000%,0.000000%,0.000000%); stroke-width: 0.500000;stroke-linecap: round;stroke-linejoin: round;stroke-miterlimit: 10.000000;fill: none;"></path>
  <path d="M571.426102 12.623306C570.117203 12.627380,568.784790 12.672897,567.429016 12.761520C568.450348 13.657547,569.424667 14.567535,570.353073 15.490189Z" style="stroke:rgb(0.000000%,0.000000%,0.000000%); stroke-width: 0.500000;fill: rgb(0.000000%,0.000000%,0.000000%);"></path>
  <path d="M539.082565 111.974106l0 0" style="stroke:rgb(0.000000%,0.000000%,0.000000%); stroke-width: 5.000000;stroke-linecap: round;stroke-linejoin: round;stroke-miterlimit: 10.000000;fill: none;"></path>
  <path d="M595.775467 69.454422L652.468369 69.454422L652.468369 12.761520L595.775467 12.761520Z" style="stroke:rgb(60.000610%,60.000610%,60.000610%); stroke-width: 1.000000;stroke-linecap: round;stroke-linejoin: round;stroke-miterlimit: 10.000000;fill: none;"></path>
  <path d="M595.775467 69.454422C595.869949 69.596161,624.027420 111.832382,624.121918 111.974106C732.411484 274.395157,830.219666 -67.933563,652.468369 12.761520" style="stroke:rgb(0.000000%,0.000000%,0.000000%); stroke-width: 0.500000;stroke-linecap: round;stroke-linejoin: round;stroke-miterlimit: 10.000000;fill: none;"></path>
  <path d="M655.226089 9.869553C654.311310 10.809952,653.392075 11.773819,652.468369 12.761520C653.819931 12.716293,655.151489 12.684769,656.463303 12.666672Z" style="stroke:rgb(0.000000%,0.000000%,0.000000%); stroke-width: 0.500000;fill: rgb(0.000000%,0.000000%,0.000000%);"></path>
  <path d="M624.121918 111.974106l0 0" style="stroke:rgb(0.000000%,0.000000%,0.000000%); stroke-width: 5.000000;stroke-linecap: round;stroke-linejoin: round;stroke-miterlimit: 10.000000;fill: none;"></path>
</svg>
