<?xml version="1.0"?>
<!-- Created by MetaPost 2.02 on 2024.03.26:2325 -->
<svg version="1.1" xmlns="http://www.w3.org/2000/svg" xmlns:xlink="http://www.w3.org/1999/xlink" width="170.578705" height="51.119522" viewBox="0 0 170.578705 51.119522">
<!-- Original BoundingBox: -0.250000 -0.250000 170.328705 50.869522 -->
  <path d="M0.250000 50.869522C44.612610 6.506912,110.665298 50.869522,170.328705 50.869522" style="stroke:rgb(0.000000%,0.000000%,0.000000%); stroke-width: 0.500000;stroke-linecap: round;stroke-linejoin: round;stroke-miterlimit: 10.000000;fill: none;"></path>
  <path d="M0.250000 50.869522C43.685791 7.433731,109.841461 40.204117,170.328705 50.869522" style="stroke:rgb(0.000000%,0.000000%,0.000000%); stroke-width: 0.500000;stroke-linecap: round;stroke-linejoin: round;stroke-miterlimit: 10.000000;fill: none;"></path>
  <path d="M0.250000 50.869522C43.393219 7.726303,110.828323 29.212906,170.328705 50.869522" style="stroke:rgb(0.000000%,0.000000%,0.000000%); stroke-width: 0.500000;stroke-linecap: round;stroke-linejoin: round;stroke-miterlimit: 10.000000;fill: none;"></path>
  <path d="M0.250000 50.869522C44.033249 7.086273,114.053879 18.379333,170.328705 50.869522" style="stroke:rgb(0.000000%,0.000000%,0.000000%); stroke-width: 0.500000;stroke-linecap: round;stroke-linejoin: round;stroke-miterlimit: 10.000000;fill: none;"></path>
  <path d="M0.250000 50.869522C45.833527 5.285995,119.682587 8.371689,170.328705 50.869522" style="stroke:rgb(0.000000%,0.000000%,0.000000%); stroke-width: 0.500000;stroke-linecap: round;stroke-linejoin: round;stroke-miterlimit: 10.000000;fill: none;"></path>
  <path d="M0.250000 50.869522C48.932846 2.186676,127.562592 -0.096313,170.328705 50.869522" style="stroke:rgb(0.000000%,0.000000%,0.000000%); stroke-width: 0.500000;stroke-linecap: round;stroke-linejoin: round;stroke-miterlimit: 10.000000;fill: none;"></path>
  <path d="M0.250000 50.869522C53.368500 -2.248978,137.248413 -6.427383,170.328705 50.869522" style="stroke:rgb(0.000000%,0.000000%,0.000000%); stroke-width: 0.500000;stroke-linecap: round;stroke-linejoin: round;stroke-miterlimit: 10.000000;fill: none;"></path>
  <path d="M0.250000 50.869522C59.059601 -7.940079,148.075272 -10.270569,170.328705 50.869522" style="stroke:rgb(0.000000%,0.000000%,0.000000%); stroke-width: 0.500000;stroke-linecap: round;stroke-linejoin: round;stroke-miterlimit: 10.000000;fill: none;"></path>
  <path d="M0.250000 50.869522C65.797424 -14.677902,159.308594 -11.629395,170.328705 50.869522" style="stroke:rgb(0.000000%,0.000000%,0.000000%); stroke-width: 0.500000;stroke-linecap: round;stroke-linejoin: round;stroke-miterlimit: 10.000000;fill: none;"></path>
  <path d="M0.250000 50.869522C73.230957 -22.111435,170.328705 -10.902618,170.328705 50.869522" style="stroke:rgb(0.000000%,0.000000%,0.000000%); stroke-width: 0.500000;stroke-linecap: round;stroke-linejoin: round;stroke-miterlimit: 10.000000;fill: none;"></path>
</svg>
