<?xml version="1.0"?>
<!-- Created by MetaPost 2.02 on 2024.02.05:1232 -->
<svg version="1.1" xmlns="http://www.w3.org/2000/svg" xmlns:xlink="http://www.w3.org/1999/xlink" width="198.425171" height="198.425171" viewBox="0 0 198.425171 198.425171">
<!-- Original BoundingBox: -99.212585 -99.212585 99.212585 99.212585 -->
  <path d="M99.212585 -0.000000C72.898605 -0.000000,47.665527 10.454758,29.060135 29.060135C10.454758 47.665527,0.000000 72.898605,0.000000 99.212585C0.000000 125.526566,10.454758 150.759644,29.060135 169.365036C47.665527 187.970413,72.898605 198.425171,99.212585 198.425171L99.212585 -0.000000C125.433762 7.026001,149.775650 24.035385,148.818878 49.606293C147.880692 74.680328,123.003418 88.832764,99.212585 99.212585C75.421753 109.592407,50.544479 123.744843,49.606293 148.818878C48.649521 174.389786,72.991409 191.399170,99.212585 198.425171Z" style="fill: rgb(100.000000%,100.000000%,100.000000%);stroke: none;"></path>
  <path d="M99.212585 198.425171C125.526566 198.425171,150.759644 187.970413,169.365036 169.365036C187.970413 150.759644,198.425171 125.526566,198.425171 99.212585C198.425171 72.898605,187.970413 47.665527,169.365036 29.060135C150.759644 10.454758,125.526566 -0.000000,99.212585 -0.000000L99.212585 -0.000000C124.541153 8.552704,149.304764 24.246323,148.818878 49.606293C148.337173 74.748352,123.249313 88.985428,99.212585 99.212585C75.175858 109.439743,50.087997 123.676819,49.606293 148.818878C49.120407 174.178848,73.884018 189.872467,99.212585 198.425171Z" style="fill: rgb(0.000000%,0.000000%,0.000000%);stroke: none;"></path>
  <path d="M99.212585 49.606293l0 0" style="stroke:rgb(0.000000%,0.000000%,0.000000%); stroke-width: 20.000000;stroke-linecap: round;stroke-linejoin: round;stroke-miterlimit: 10.000000;fill: none;"></path>
  <path d="M99.212585 148.818878l0 0" style="stroke:rgb(100.000000%,100.000000%,100.000000%); stroke-width: 20.000000;stroke-linecap: round;stroke-linejoin: round;stroke-miterlimit: 10.000000;fill: none;"></path>
</svg>
